<svg width="512" height="512" viewBox="0 0 512 512" xmlns="http://www.w3.org/2000/svg">
  <defs>
    <linearGradient id="gradient" x1="0%" y1="0%" x2="100%" y2="100%">
      <stop offset="0%" style="stop-color:#0ea5e9;stop-opacity:1" />
      <stop offset="50%" style="stop-color:#06b6d4;stop-opacity:1" />
      <stop offset="100%" style="stop-color:#0284c7;stop-opacity:1" />
    </linearGradient>
  </defs>
  
  <!-- Background rounded rectangle -->
  <rect width="512" height="512" rx="102" fill="url(#gradient)" />
  
  <!-- Water droplet shape -->
  <path d="M256 128C208 128 170 166 170 214C170 262 208 300 256 300C304 300 342 262 342 214C342 166 304 128 256 128ZM256 148C294 148 322 176 322 214C322 252 294 280 256 280C218 280 190 252 190 214C190 176 218 148 256 148Z" fill="white" opacity="0.95"/>
  
  <!-- Small droplet -->
  <circle cx="256" cy="384" r="26" fill="white" opacity="0.9"/>
  
  <!-- Highlight on main droplet -->
  <ellipse cx="230" cy="190" rx="20" ry="30" fill="white" opacity="0.3"/>
</svg>
